<?xml version="1.0" encoding="UTF-8"?><svg id="Livello_1" xmlns="http://www.w3.org/2000/svg" viewBox="0 0 138.82 53.07"><defs><style>.cls-1{fill:#1d1d1b;}.cls-2{fill:none;stroke:#1d1d1b;stroke-miterlimit:10;stroke-width:3.52px;}</style></defs><path d="M130.92,11.98h7.44l.3.67c-.41,8.57.51,17.59,0,26.1-.7,11.74-11.6,17-22.08,12.99-.82-.31-4.79-2.4-4.78-3.14l3.6-5.1c3.56,2.59,8.41,4.46,12.42,1.61,3.13-2.23,2.82-5.54,3.1-8.97-.45-.12-.32.11-.44.24-2.96,3.46-5.43,5.06-10.28,4.58-5.12-.5-9.37-5.67-9.37-10.72V12.27l.29-.29h7.15l.29.29v17.2c0,.47.64,2.09.93,2.55,1.57,2.5,5.67,2.87,8.02,1.38,1.55-.98,3.41-4.03,3.41-5.86v-15.56Z"/><path d="M87.65,37.1v14.49c-1.95.2-4.33.36-6.29.2-.51-.04-1.07-.09-1.44-.49V12.27l.29-.29h6.37c.55,0,.66,2.37.68,2.9l3.6-2.48c12.48-5.1,20.22,6.05,17.75,17.75-2.15,10.18-13.34,14.79-20.96,6.95ZM93.6,18.02c-8.13.95-8.39,14.85-.55,16.09,11,1.74,11.2-17.33.55-16.09Z"/><path d="M52.59,30.14c.6.18-.16,2.12-.34,2.56-2.52,6.51-10.45,9.25-16.92,7.74-13.54-3.16-14.4-23.04-1.77-28.17,7-2.84,16.77.07,18.98,7.87.09.31.59,1.69.05,1.69h-7.34c-1.02-2.49-3.07-3.88-5.8-3.88-8.62,0-9.52,13.93-2.07,15.81,2.29.58,5.23.11,6.81-1.77.37-.45.96-1.84,1.44-1.84h6.95Z"/><path d="M55.01,40.19V.29l.29-.29h7.34l.29.29v39.61l-.33.25c-2.49.33-5.11.37-7.59.04Z"/><path d="M68.24,11.98h7.15s.34.3.38.39l.07,27.5c-.07.2-.22.29-.4.37-.51.24-5.59.24-6.43.15-.43-.05-.76-.14-1.06-.49V12.27l.29-.29Z"/><path class="cls-2" d="M18.64,25.38h.01c3.09-9.1,6.33-16.24-1.14-18.77-7.62-2.58-9.24,5.05-12.31,14.12h-.01c-3.09,9.1-6.33,16.24,1.14,18.77,7.62,2.58,9.24-5.05,12.31-14.12Z"/><path class="cls-1" d="M14.51,23.96h0c1.53-4.51,3.06-8.08.17-9.05-2.94-.99-3.84,2.75-5.36,7.25h0c-1.53,4.51-3.06,8.08-.17,9.05,2.94.99,3.84-2.75,5.36-7.25Z"/></svg>
